<?xml version="1.0" encoding="UTF-8" standalone="no"?>
<!-- Created with Inkscape (http://www.inkscape.org/) -->

<svg
   width="79.90974mm" 
   height="55.88287mm"
   viewBox="0 0 798.5559 414.12607"
   version="1.1"
   id="svg876"
   inkscape:version="1.1.2 (0a00cf5339, 2022-02-04)"
   sodipodi:docname="logo2.svg"
   xmlns:inkscape="http://www.inkscape.org/namespaces/inkscape"
   xmlns:sodipodi="http://sodipodi.sourceforge.net/DTD/sodipodi-0.dtd"
   xmlns="http://www.w3.org/2000/svg"
   xmlns:svg="http://www.w3.org/2000/svg">
  <sodipodi:namedview
     id="namedview878"
     pagecolor="#ffffff"
     bordercolor="#666666"
     borderopacity="1.0"
     inkscape:pageshadow="2"
     inkscape:pageopacity="0.0"
     inkscape:pagecheckerboard="true"
     inkscape:document-units="mm"
     showgrid="false"
     showborder="false"
     fit-margin-top="0"
     fit-margin-left="0"
     fit-margin-right="0"
     fit-margin-bottom="0"
     inkscape:zoom="0.17677669"
     inkscape:cx="1821.5071"
     inkscape:cy="738.21948"
     inkscape:window-width="1920"
     inkscape:window-height="1110"
     inkscape:window-x="0"
     inkscape:window-y="28"
     inkscape:window-maximized="1"
     inkscape:current-layer="layer2" />
  <defs
     id="defs873">
    <marker
       id="DistanceX"
       orient="auto"
       refX="0"
       refY="0"
       style="overflow:visible">
      <path
         d="M 3,-3 -3,3 M 0,-5 V 5"
         style="stroke:#000000;stroke-width:0.5"
         id="path955" />
    </marker>
    <pattern
       id="Hatch"
       patternUnits="userSpaceOnUse"
       width="8"
       height="8"
       x="0"
       y="0">
      <path
         d="M8 4 l-4,4"
         stroke="#000000"
         stroke-width="0.25"
         linecap="square"
         id="path958" />
      <path
         d="M6 2 l-4,4"
         stroke="#000000"
         stroke-width="0.25"
         linecap="square"
         id="path960" />
      <path
         d="M4 0 l-4,4"
         stroke="#000000"
         stroke-width="0.25"
         linecap="square"
         id="path962" />
    </pattern>
    <symbol
       id="*Model_Space" />
    <symbol
       id="*Paper_Space" />
    <symbol
       id="*Paper_Space0" />
  </defs>
  <g
     inkscape:groupmode="layer"
     id="layer2"
     inkscape:label="border"
     transform="translate(395.2146,204.92199)">
    <path
       id="rect3546"
       style="fill:#0de6ae;fill-opacity:1;stroke-width:1"
       d="m -188.18897,179.62366 h 384.49676 v 29.58041 h -384.49676 z m 0,-384.52493 h 384.49724 v 29.57812 h -384.49724 z m 0.016,0.016 a 207.04163,207.04163 0 0 0 0,414.08326 v -29.6106 a 177.46053,177.46053 0 0 1 0,-354.91374 z m 384.47266,0 v 29.55892 a 177.46053,177.46053 0 0 1 0,354.91374 v 29.6106 a 207.04163,207.04163 0 0 0 0,-414.08326 z M -188.18856,209.2037 h 384.49677 m -384.49677,-414.12569 h 384.49677 m -384.49677,384.54528 h 384.49677 m -384.49677,-354.96487 h 384.49677" />
  </g>
  <g
     inkscape:groupmode="layer"
     id="layer3"
     inkscape:label="border_to remove"
     transform="translate(395.2146,204.92199)" />
  <g
     inkscape:groupmode="layer"
     id="layer4"
     inkscape:label="letters"
     style="display:inline"
     transform="translate(395.2146,204.92199)">
    <path
       style="fill:#0de6ae;fill-opacity:1;stroke:none;stroke-width:14.0859;stroke-linecap:round"
       d="M -54.160919,-60.305453 43.942109,150.04411"
       id="path988" />
    <path
       style="fill:#0de6ae;fill-opacity:1;stroke:none;stroke-width:14.0859;stroke-linecap:round"
       d="M -21.327294,150.04411 H 43.942109"
       id="path990" />
    <path
       style="fill:#0de6ae;fill-opacity:1;stroke:none;stroke-width:14.0859;stroke-linecap:round"
       d="m -57.773485,71.789063 36.446191,78.255047"
       id="path992" />
    <path
       style="fill:#0de6ae;fill-opacity:1;stroke:none;stroke-width:14.0859;stroke-linecap:round"
       d="M 29.446145,-145.75996 H -35.822476"
       id="path982" />
    <path
       style="fill:#0de6ae;fill-opacity:1;stroke:none;stroke-width:14.0859;stroke-linecap:round"
       d="M 65.892649,-67.661427 29.446145,-145.75996"
       id="path984" />
    <path
       style="fill:#0de6ae;fill-opacity:1;stroke:none;stroke-width:14.0859;stroke-linecap:round"
       d="M 62.280396,64.589599 -35.822476,-145.75996"
       id="path986" />
    <path
       id="path4589"
       style="fill:#0de6ae;fill-opacity:1;stroke:none;stroke-width:26.4583px;stroke-linecap:butt;stroke-linejoin:miter;stroke-opacity:1"
       d="M -54.176411,-60.345899 43.942099,150.0441 h -65.2694 L -57.793761,71.842401 Z M -196.44162,-145.50866 A 147.88355,147.88355 0 1 0 -57.793761,71.842401 l 3.6174,-132.1883 A 147.88355,147.88355 0 0 0 -196.44162,-145.50866 Z m -2.4288,59.582931 a 88.730123,88.730123 0 0 1 99.425449,88.05664 88.730123,88.730123 0 1 1 -177.456859,0 88.730123,88.730123 0 0 1 78.03141,-88.05664 z" />
    <path
       id="path4591"
       style="fill:#0de6ae;fill-opacity:1;stroke:none;stroke-width:26.4583px;stroke-linecap:butt;stroke-linejoin:miter;stroke-opacity:1"
       d="m 65.892649,-67.661429 -36.44652,-78.098531 h -65.2686 L 62.302279,64.659391 Z M 195.00735,-145.71536 A 147.88355,147.88355 0 0 0 65.867929,-67.580599 l -3.56565,132.23999 A 147.88355,147.88355 0 1 0 195.00735,-145.71536 Z m -6.873,59.479571 a 88.730123,88.730123 0 0 1 96.8933,88.3667 88.730123,88.730123 0 1 1 -177.45686,0 88.730123,88.730123 0 0 1 80.56356,-88.3667 z" />
  </g>
  <g
     inkscape:groupmode="layer"
     id="layer5"
     inkscape:label="letters_to remove"
     style="display:inline"
     transform="translate(395.2146,204.92199)" />
</svg>
