<svg xmlns="http://www.w3.org/2000/svg" version="1.1" xmlns:xlink="http://www.w3.org/1999/xlink" xmlns:svgjs="http://svgjs.dev/svgjs" width="1024" height="768" preserveAspectRatio="none" viewBox="0 0 1024 768"><g mask="url(&quot;#SvgjsMask1035&quot;)" fill="none"><rect width="1024" height="768" x="0" y="0" fill="rgba(0, 128, 128, 1)"></rect><path d="M605.45 815.36C737.43 684.24 700.98 145 868.43 119.22 1035.88 93.44 1040.08 365.72 1131.41 388.02" stroke="rgba(9, 165, 125, 1)" stroke-width="2"></path><path d="M151.79 885.9C274.04 836.77 287.8 471.06 463.88 461.22 639.96 451.38 619.93 557.22 775.97 557.22 932.01 557.22 1006.44 462.3 1088.06 461.22" stroke="rgba(9, 165, 125, 1)" stroke-width="2"></path><path d="M434.26 869.51C577.78 751.81 553.88 209.51 734.81 190.6 915.74 171.69 936.29 440.78 1035.36 459.4" stroke="rgba(9, 165, 125, 1)" stroke-width="2"></path><path d="M357.76 907.49C485.06 794.92 398.81 291.68 619.06 279.97 839.32 268.26 999.72 498.11 1141.67 502.69" stroke="rgba(9, 165, 125, 1)" stroke-width="2"></path><path d="M427.6 840.14C539.3 776.64 484.14 398.62 686.69 396.26 889.23 393.9 1064.67 607.09 1204.86 611.3" stroke="rgba(9, 165, 125, 1)" stroke-width="2"></path></g><defs><mask id="SvgjsMask1035"><rect width="1024" height="768" fill="#ffffff"></rect></mask></defs></svg>